<svg xmlns="http://www.w3.org/2000/svg" xmlns:xlink="http://www.w3.org/1999/xlink" width="494" zoomAndPan="magnify" viewBox="0 0 370.5 187.499995" height="250" preserveAspectRatio="xMidYMid meet" version="1.0"><defs><filter x="0%" y="0%" width="100%" height="100%" id="b7383c026e"><feColorMatrix values="0 0 0 0 1 0 0 0 0 1 0 0 0 0 1 0 0 0 1 0" color-interpolation-filters="sRGB"/></filter><g/><clipPath id="fdf12ef06e"><path d="M 0.242188 0 L 369.757812 0 L 369.757812 187 L 0.242188 187 Z M 0.242188 0 " clip-rule="nonzero"/></clipPath><clipPath id="31d27eeb1c"><path d="M 9.082031 32.453125 L 369.488281 32.453125 L 369.488281 154.085938 L 9.082031 154.085938 Z M 9.082031 32.453125 " clip-rule="nonzero"/></clipPath><clipPath id="a6a67b4f36"><path d="M 9.09375 32.453125 L 369.46875 32.453125 L 369.46875 154.074219 L 9.09375 154.074219 Z M 9.09375 32.453125 " clip-rule="nonzero"/></clipPath><clipPath id="14db8afcaf"><path d="M 158 1 L 369.757812 1 L 369.757812 173 L 158 173 Z M 158 1 " clip-rule="nonzero"/></clipPath><mask id="003fe26254"><g filter="url(#b7383c026e)"><rect x="-37.05" width="444.6" fill="#000000" y="-18.749999" height="224.999994" fill-opacity="0.83"/></g></mask><clipPath id="6a4eec59d0"><rect x="0" width="307" y="0" height="15"/></clipPath></defs><g clip-path="url(#fdf12ef06e)"><path fill="#ffffff" d="M 0.242188 0 L 369.757812 0 L 369.757812 187 L 0.242188 187 Z M 0.242188 0 " fill-opacity="1" fill-rule="nonzero"/></g><g clip-path="url(#31d27eeb1c)"><path fill="#ffffff" d="M 9.082031 32.453125 L 369.699219 32.453125 L 369.699219 154.085938 L 9.082031 154.085938 Z M 9.082031 32.453125 " fill-opacity="1" fill-rule="nonzero"/></g><g clip-path="url(#a6a67b4f36)"><path stroke-linecap="butt" transform="matrix(0.748005, 0, 0, 0.748005, 9.095001, 32.453797)" fill="none" stroke-linejoin="miter" d="M -0.00167208 -0.000898904 L 481.779695 -0.000898904 L 481.779695 162.593001 L -0.00167208 162.593001 Z M -0.00167208 -0.000898904 " stroke="#000000" stroke-width="8" stroke-opacity="1" stroke-miterlimit="4"/></g><g fill="#000000" fill-opacity="1"><g transform="translate(34.916834, 119.82818)"><g><path d="M 43.265625 -67.8125 C 49.378906 -67.8125 54.28125 -66.367188 57.96875 -63.484375 C 61.65625 -60.609375 63.5 -56.472656 63.5 -51.078125 C 63.5 -45.328125 61.789062 -40.25 58.375 -35.84375 C 54.957031 -31.4375 50.578125 -28.753906 45.234375 -27.796875 L 62.140625 0 L 40.203125 0 L 27.703125 -26.078125 L 27.515625 -26.078125 L 23.390625 0 L 5.75 0 L 16.453125 -67.8125 Z M 29.3125 -37.40625 L 31.75 -37.40625 C 35.882812 -37.40625 39.085938 -38.273438 41.359375 -40.015625 C 43.640625 -41.753906 44.78125 -44.304688 44.78125 -47.671875 C 44.78125 -52.109375 41.125 -54.328125 33.8125 -54.328125 L 32.015625 -54.328125 Z M 29.3125 -37.40625 "/></g></g></g><g fill="#000000" fill-opacity="1"><g transform="translate(86.538749, 119.82818)"><g><path d="M 34.09375 -67.8125 L 23.390625 0 L 5.75 0 L 16.453125 -67.8125 Z M 34.09375 -67.8125 "/></g></g></g><g fill="#000000" fill-opacity="1"><g transform="translate(106.143712, 119.82818)"><g><path d="M 39.75 -69.609375 C 47.007812 -69.609375 53.816406 -67.75 60.171875 -64.03125 L 51 -50.359375 C 47.820312 -53.359375 44.160156 -54.859375 40.015625 -54.859375 C 37.859375 -54.859375 35.894531 -54.242188 34.125 -53.015625 C 32.363281 -51.785156 31.484375 -50.269531 31.484375 -48.46875 C 31.484375 -47.15625 32.109375 -46.003906 33.359375 -45.015625 C 34.617188 -44.023438 36.929688 -43.050781 40.296875 -42.09375 C 44.847656 -40.707031 48.144531 -39.367188 50.1875 -38.078125 C 52.226562 -36.796875 53.816406 -35.207031 54.953125 -33.3125 C 56.085938 -31.425781 56.65625 -29.078125 56.65625 -26.265625 C 56.65625 -22.179688 55.601562 -17.859375 53.5 -13.296875 C 51.40625 -8.742188 47.972656 -5.117188 43.203125 -2.421875 C 38.441406 0.273438 32.796875 1.679688 26.265625 1.796875 C 17.867188 1.796875 10.3125 -0.78125 3.59375 -5.9375 L 13.40625 -20.140625 C 18.082031 -15.460938 22.90625 -13.125 27.875 -13.125 C 30.632812 -13.125 32.957031 -13.84375 34.84375 -15.28125 C 36.738281 -16.726562 37.6875 -18.5625 37.6875 -20.78125 C 37.6875 -23.65625 34.804688 -25.875 29.046875 -27.4375 C 22.085938 -29.351562 17.585938 -31.40625 15.546875 -33.59375 C 13.515625 -35.78125 12.5 -38.703125 12.5 -42.359375 C 12.5 -50.035156 15.117188 -56.492188 20.359375 -61.734375 C 25.609375 -66.984375 32.070312 -69.609375 39.75 -69.609375 Z M 39.75 -69.609375 "/></g></g></g><g fill="#000000" fill-opacity="1"><g transform="translate(151.919827, 119.82818)"><g><path d="M 34.09375 -67.8125 L 29.953125 -41.640625 L 55.40625 -41.640625 L 59.53125 -67.8125 L 77.171875 -67.8125 L 66.46875 0 L 48.84375 0 L 53.25 -27.796875 L 27.796875 -27.796875 L 23.390625 0 L 5.75 0 L 16.453125 -67.8125 Z M 34.09375 -67.8125 "/></g></g></g><g clip-path="url(#14db8afcaf)"><path stroke-linecap="butt" transform="matrix(1.400146, 0, 0, 1.400146, 210.367122, 31.479889)" fill="none" stroke-linejoin="miter" d="M 39.750359 15.576354 L 50.351931 64.000426 L 36.929783 64.000426 L 35.141466 55.580546 L 17.796737 55.580546 L 13.109727 64.000426 L -0.251043 64.000426 L 26.015745 15.576354 Z M 22.799005 45.949856 L 33.275031 45.949856 L 30.57721 30.535729 L 30.451665 30.535729 Z M 57.661435 15.576354 L 64.733799 44.995714 L 81.104857 15.576354 L 94.794833 15.576354 L 66.474689 64.000426 L 56.704504 64.000426 L 43.988198 15.576354 Z M 57.661435 15.576354 " stroke="#ffffff" stroke-width="6.504209" stroke-opacity="1" stroke-miterlimit="4"/></g><g fill="#000000" fill-opacity="1"><g transform="translate(210.367122, 121.089248)"><g><path d="M 55.671875 -67.8125 L 70.515625 0 L 51.71875 0 L 49.203125 -11.78125 L 24.90625 -11.78125 L 18.34375 0 L -0.359375 0 L 36.421875 -67.8125 Z M 31.921875 -25.265625 L 46.59375 -25.265625 L 42.8125 -46.859375 L 42.625 -46.859375 Z M 31.921875 -25.265625 "/></g></g></g><g fill="#000000" fill-opacity="1"><g transform="translate(262.602414, 121.089248)"><g><path d="M 28.515625 -67.8125 L 38.40625 -26.625 L 61.34375 -67.8125 L 80.5 -67.8125 L 40.828125 0 L 27.15625 0 L 9.359375 -67.8125 Z M 28.515625 -67.8125 "/></g></g></g><g mask="url(#003fe26254)"><g transform="matrix(1, 0, 0, 1, 38, 128)"><g clip-path="url(#6a4eec59d0)"><g fill="#000000" fill-opacity="1"><g transform="translate(1.426506, 11.134385)"><g><path d="M 0.328125 0 L 3.109375 -7.90625 L 4.703125 -7.90625 L 7.484375 0 L 6.3125 0 L 3.984375 -6.984375 L 3.84375 -6.984375 L 1.515625 0 Z M 1.65625 -1.765625 L 1.65625 -2.609375 L 6.3125 -2.609375 L 6.3125 -1.765625 Z M 1.65625 -1.765625 "/></g></g></g><g fill="#000000" fill-opacity="1"><g transform="translate(14.028919, 11.134385)"><g><path d="M 3.765625 0.15625 C 3.253906 0.15625 2.796875 0.101562 2.390625 0 C 1.992188 -0.113281 1.660156 -0.28125 1.390625 -0.5 C 1.128906 -0.726562 0.929688 -1.003906 0.796875 -1.328125 C 0.671875 -1.648438 0.617188 -2.015625 0.640625 -2.421875 L 1.625 -2.65625 C 1.59375 -2.226562 1.660156 -1.875 1.828125 -1.59375 C 2.003906 -1.3125 2.265625 -1.101562 2.609375 -0.96875 C 2.953125 -0.84375 3.351562 -0.78125 3.8125 -0.78125 C 4.25 -0.78125 4.617188 -0.832031 4.921875 -0.9375 C 5.234375 -1.039062 5.46875 -1.191406 5.625 -1.390625 C 5.78125 -1.585938 5.859375 -1.816406 5.859375 -2.078125 C 5.859375 -2.367188 5.765625 -2.597656 5.578125 -2.765625 C 5.390625 -2.929688 5.140625 -3.0625 4.828125 -3.15625 C 4.523438 -3.25 4.1875 -3.335938 3.8125 -3.421875 C 3.445312 -3.503906 3.082031 -3.59375 2.71875 -3.6875 C 2.363281 -3.789062 2.035156 -3.925781 1.734375 -4.09375 C 1.441406 -4.257812 1.207031 -4.472656 1.03125 -4.734375 C 0.863281 -5.003906 0.78125 -5.347656 0.78125 -5.765625 C 0.78125 -6.234375 0.894531 -6.640625 1.125 -6.984375 C 1.363281 -7.328125 1.695312 -7.59375 2.125 -7.78125 C 2.550781 -7.96875 3.054688 -8.0625 3.640625 -8.0625 C 4.210938 -8.0625 4.722656 -7.96875 5.171875 -7.78125 C 5.628906 -7.59375 5.988281 -7.320312 6.25 -6.96875 C 6.507812 -6.613281 6.644531 -6.175781 6.65625 -5.65625 L 5.625 -5.40625 C 5.625 -5.695312 5.578125 -5.945312 5.484375 -6.15625 C 5.390625 -6.375 5.253906 -6.554688 5.078125 -6.703125 C 4.898438 -6.847656 4.6875 -6.957031 4.4375 -7.03125 C 4.195312 -7.101562 3.925781 -7.140625 3.625 -7.140625 C 3.269531 -7.140625 2.957031 -7.082031 2.6875 -6.96875 C 2.414062 -6.863281 2.203125 -6.710938 2.046875 -6.515625 C 1.898438 -6.328125 1.828125 -6.101562 1.828125 -5.84375 C 1.828125 -5.53125 1.9375 -5.28125 2.15625 -5.09375 C 2.375 -4.914062 2.65625 -4.773438 3 -4.671875 C 3.34375 -4.578125 3.71875 -4.484375 4.125 -4.390625 C 4.457031 -4.316406 4.789062 -4.226562 5.125 -4.125 C 5.457031 -4.03125 5.757812 -3.898438 6.03125 -3.734375 C 6.300781 -3.578125 6.519531 -3.363281 6.6875 -3.09375 C 6.851562 -2.832031 6.9375 -2.5 6.9375 -2.09375 C 6.9375 -1.632812 6.816406 -1.238281 6.578125 -0.90625 C 6.335938 -0.570312 5.984375 -0.3125 5.515625 -0.125 C 5.046875 0.0625 4.460938 0.15625 3.765625 0.15625 Z M 3.765625 0.15625 "/></g></g></g><g fill="#000000" fill-opacity="1"><g transform="translate(26.356059, 11.134385)"><g><path d="M 1.578125 -2.421875 L 1.578125 -3.359375 L 3.40625 -3.359375 C 3.570312 -3.359375 3.753906 -3.363281 3.953125 -3.375 C 4.160156 -3.394531 4.367188 -3.429688 4.578125 -3.484375 C 4.796875 -3.535156 4.992188 -3.628906 5.171875 -3.765625 C 5.359375 -3.898438 5.507812 -4.082031 5.625 -4.3125 C 5.738281 -4.539062 5.796875 -4.835938 5.796875 -5.203125 C 5.796875 -5.554688 5.738281 -5.84375 5.625 -6.0625 C 5.507812 -6.289062 5.363281 -6.46875 5.1875 -6.59375 C 5.019531 -6.71875 4.832031 -6.804688 4.625 -6.859375 C 4.425781 -6.910156 4.238281 -6.941406 4.0625 -6.953125 C 3.882812 -6.972656 3.738281 -6.984375 3.625 -6.984375 L 1.578125 -6.984375 L 1.578125 -7.90625 L 3.734375 -7.90625 C 4.191406 -7.90625 4.613281 -7.847656 5 -7.734375 C 5.394531 -7.628906 5.734375 -7.460938 6.015625 -7.234375 C 6.296875 -7.003906 6.515625 -6.71875 6.671875 -6.375 C 6.835938 -6.03125 6.921875 -5.628906 6.921875 -5.171875 C 6.921875 -4.585938 6.785156 -4.09375 6.515625 -3.6875 C 6.242188 -3.28125 5.84375 -2.96875 5.3125 -2.75 C 4.789062 -2.53125 4.125 -2.421875 3.3125 -2.421875 Z M 1 0 L 1 -7.90625 L 2.09375 -7.90625 L 2.09375 0 Z M 1 0 "/></g></g></g><g fill="#000000" fill-opacity="1"><g transform="translate(38.515644, 11.134385)"><g><path d="M 1 0 L 1 -7.90625 L 2.109375 -7.90625 L 2.109375 0 Z M 1 0 "/></g></g></g><g fill="#000000" fill-opacity="1"><g transform="translate(46.402622, 11.134385)"><g><path d="M 1 0 L 1 -7.90625 L 3.75 -7.90625 C 4.132812 -7.90625 4.488281 -7.867188 4.8125 -7.796875 C 5.132812 -7.734375 5.425781 -7.640625 5.6875 -7.515625 C 5.945312 -7.398438 6.164062 -7.25 6.34375 -7.0625 C 6.53125 -6.875 6.671875 -6.660156 6.765625 -6.421875 C 6.867188 -6.179688 6.921875 -5.90625 6.921875 -5.59375 C 6.921875 -5.320312 6.878906 -5.066406 6.796875 -4.828125 C 6.710938 -4.597656 6.585938 -4.394531 6.421875 -4.21875 C 6.253906 -4.050781 6.046875 -3.910156 5.796875 -3.796875 C 5.546875 -3.679688 5.253906 -3.601562 4.921875 -3.5625 L 4.921875 -3.421875 C 5.203125 -3.378906 5.445312 -3.300781 5.65625 -3.1875 C 5.875 -3.082031 6.0625 -2.914062 6.21875 -2.6875 C 6.382812 -2.46875 6.523438 -2.164062 6.640625 -1.78125 L 7.140625 0 L 5.953125 0 L 5.546875 -1.59375 C 5.472656 -1.9375 5.34375 -2.207031 5.15625 -2.40625 C 4.976562 -2.613281 4.769531 -2.765625 4.53125 -2.859375 C 4.289062 -2.953125 4.019531 -3 3.71875 -3 L 2.09375 -3 L 2.09375 0 Z M 2.09375 -3.890625 L 3.40625 -3.890625 C 3.570312 -3.890625 3.753906 -3.894531 3.953125 -3.90625 C 4.160156 -3.914062 4.375 -3.941406 4.59375 -3.984375 C 4.8125 -4.035156 5.007812 -4.113281 5.1875 -4.21875 C 5.363281 -4.332031 5.507812 -4.488281 5.625 -4.6875 C 5.738281 -4.882812 5.796875 -5.132812 5.796875 -5.4375 C 5.796875 -5.75 5.738281 -6 5.625 -6.1875 C 5.507812 -6.382812 5.363281 -6.535156 5.1875 -6.640625 C 5.019531 -6.753906 4.832031 -6.832031 4.625 -6.875 C 4.425781 -6.925781 4.238281 -6.957031 4.0625 -6.96875 C 3.882812 -6.976562 3.734375 -6.984375 3.609375 -6.984375 L 2.09375 -6.984375 Z M 2.09375 -3.890625 "/></g></g></g><g fill="#000000" fill-opacity="1"><g transform="translate(58.909288, 11.134385)"><g><path d="M 1 0 L 1 -7.90625 L 2.109375 -7.90625 L 2.109375 0 Z M 1 0 "/></g></g></g><g fill="#000000" fill-opacity="1"><g transform="translate(66.796266, 11.134385)"><g><path d="M 1 0 L 1 -7.90625 L 2.46875 -7.90625 L 6.609375 -1.4375 L 6.6875 -1.4375 L 6.625 -7.90625 L 7.703125 -7.90625 L 7.703125 0 L 6.34375 0 L 2.09375 -6.609375 L 2 -6.609375 L 2.078125 0 Z M 1 0 "/></g></g></g><g fill="#000000" fill-opacity="1"><g transform="translate(80.272351, 11.134385)"><g><path d="M 4.0625 0.15625 C 3.414062 0.15625 2.835938 0.0078125 2.328125 -0.28125 C 1.828125 -0.582031 1.429688 -1.035156 1.140625 -1.640625 C 0.859375 -2.242188 0.71875 -3 0.71875 -3.90625 C 0.71875 -4.550781 0.796875 -5.128906 0.953125 -5.640625 C 1.117188 -6.148438 1.351562 -6.582031 1.65625 -6.9375 C 1.96875 -7.300781 2.34375 -7.578125 2.78125 -7.765625 C 3.226562 -7.960938 3.75 -8.0625 4.34375 -8.0625 C 4.769531 -8.0625 5.160156 -8.003906 5.515625 -7.890625 C 5.878906 -7.773438 6.191406 -7.613281 6.453125 -7.40625 C 6.722656 -7.195312 6.9375 -6.9375 7.09375 -6.625 C 7.257812 -6.320312 7.359375 -5.976562 7.390625 -5.59375 L 6.328125 -5.296875 C 6.304688 -5.628906 6.234375 -5.910156 6.109375 -6.140625 C 5.992188 -6.367188 5.835938 -6.550781 5.640625 -6.6875 C 5.453125 -6.832031 5.242188 -6.9375 5.015625 -7 C 4.796875 -7.0625 4.5625 -7.09375 4.3125 -7.09375 C 3.976562 -7.09375 3.660156 -7.035156 3.359375 -6.921875 C 3.054688 -6.804688 2.796875 -6.625 2.578125 -6.375 C 2.359375 -6.132812 2.179688 -5.8125 2.046875 -5.40625 C 1.921875 -5 1.859375 -4.507812 1.859375 -3.9375 C 1.859375 -3.34375 1.925781 -2.84375 2.0625 -2.4375 C 2.195312 -2.03125 2.375 -1.707031 2.59375 -1.46875 C 2.820312 -1.238281 3.082031 -1.070312 3.375 -0.96875 C 3.664062 -0.863281 3.960938 -0.8125 4.265625 -0.8125 C 4.679688 -0.8125 5.039062 -0.890625 5.34375 -1.046875 C 5.65625 -1.210938 5.90625 -1.457031 6.09375 -1.78125 C 6.28125 -2.101562 6.390625 -2.507812 6.421875 -3 L 4.65625 -3 L 4.65625 -3.875 L 7.515625 -3.875 L 7.515625 0 L 6.625 0 L 6.84375 -2.171875 L 6.671875 -2.171875 C 6.566406 -1.648438 6.40625 -1.21875 6.1875 -0.875 C 5.96875 -0.53125 5.679688 -0.269531 5.328125 -0.09375 C 4.984375 0.0703125 4.5625 0.15625 4.0625 0.15625 Z M 4.0625 0.15625 "/></g></g></g><g fill="#000000" fill-opacity="1"><g transform="translate(93.353488, 11.134385)"><g/></g></g><g fill="#000000" fill-opacity="1"><g transform="translate(101.132756, 11.134385)"><g><path d="M 3.765625 0.15625 C 3.253906 0.15625 2.796875 0.101562 2.390625 0 C 1.992188 -0.113281 1.660156 -0.28125 1.390625 -0.5 C 1.128906 -0.726562 0.929688 -1.003906 0.796875 -1.328125 C 0.671875 -1.648438 0.617188 -2.015625 0.640625 -2.421875 L 1.625 -2.65625 C 1.59375 -2.226562 1.660156 -1.875 1.828125 -1.59375 C 2.003906 -1.3125 2.265625 -1.101562 2.609375 -0.96875 C 2.953125 -0.84375 3.351562 -0.78125 3.8125 -0.78125 C 4.25 -0.78125 4.617188 -0.832031 4.921875 -0.9375 C 5.234375 -1.039062 5.46875 -1.191406 5.625 -1.390625 C 5.78125 -1.585938 5.859375 -1.816406 5.859375 -2.078125 C 5.859375 -2.367188 5.765625 -2.597656 5.578125 -2.765625 C 5.390625 -2.929688 5.140625 -3.0625 4.828125 -3.15625 C 4.523438 -3.25 4.1875 -3.335938 3.8125 -3.421875 C 3.445312 -3.503906 3.082031 -3.59375 2.71875 -3.6875 C 2.363281 -3.789062 2.035156 -3.925781 1.734375 -4.09375 C 1.441406 -4.257812 1.207031 -4.472656 1.03125 -4.734375 C 0.863281 -5.003906 0.78125 -5.347656 0.78125 -5.765625 C 0.78125 -6.234375 0.894531 -6.640625 1.125 -6.984375 C 1.363281 -7.328125 1.695312 -7.59375 2.125 -7.78125 C 2.550781 -7.96875 3.054688 -8.0625 3.640625 -8.0625 C 4.210938 -8.0625 4.722656 -7.96875 5.171875 -7.78125 C 5.628906 -7.59375 5.988281 -7.320312 6.25 -6.96875 C 6.507812 -6.613281 6.644531 -6.175781 6.65625 -5.65625 L 5.625 -5.40625 C 5.625 -5.695312 5.578125 -5.945312 5.484375 -6.15625 C 5.390625 -6.375 5.253906 -6.554688 5.078125 -6.703125 C 4.898438 -6.847656 4.6875 -6.957031 4.4375 -7.03125 C 4.195312 -7.101562 3.925781 -7.140625 3.625 -7.140625 C 3.269531 -7.140625 2.957031 -7.082031 2.6875 -6.96875 C 2.414062 -6.863281 2.203125 -6.710938 2.046875 -6.515625 C 1.898438 -6.328125 1.828125 -6.101562 1.828125 -5.84375 C 1.828125 -5.53125 1.9375 -5.28125 2.15625 -5.09375 C 2.375 -4.914062 2.65625 -4.773438 3 -4.671875 C 3.34375 -4.578125 3.71875 -4.484375 4.125 -4.390625 C 4.457031 -4.316406 4.789062 -4.226562 5.125 -4.125 C 5.457031 -4.03125 5.757812 -3.898438 6.03125 -3.734375 C 6.300781 -3.578125 6.519531 -3.363281 6.6875 -3.09375 C 6.851562 -2.832031 6.9375 -2.5 6.9375 -2.09375 C 6.9375 -1.632812 6.816406 -1.238281 6.578125 -0.90625 C 6.335938 -0.570312 5.984375 -0.3125 5.515625 -0.125 C 5.046875 0.0625 4.460938 0.15625 3.765625 0.15625 Z M 3.765625 0.15625 "/></g></g></g><g fill="#000000" fill-opacity="1"><g transform="translate(113.459891, 11.134385)"><g><path d="M 4.234375 0.15625 C 3.660156 0.15625 3.15625 0.0625 2.71875 -0.125 C 2.289062 -0.320312 1.925781 -0.597656 1.625 -0.953125 C 1.320312 -1.316406 1.09375 -1.75 0.9375 -2.25 C 0.789062 -2.75 0.71875 -3.300781 0.71875 -3.90625 C 0.71875 -4.832031 0.867188 -5.597656 1.171875 -6.203125 C 1.472656 -6.816406 1.890625 -7.28125 2.421875 -7.59375 C 2.953125 -7.90625 3.5625 -8.0625 4.25 -8.0625 C 4.78125 -8.0625 5.257812 -7.96875 5.6875 -7.78125 C 6.125 -7.59375 6.492188 -7.320312 6.796875 -6.96875 C 7.097656 -6.613281 7.332031 -6.175781 7.5 -5.65625 C 7.664062 -5.144531 7.75 -4.5625 7.75 -3.90625 C 7.75 -3.289062 7.671875 -2.734375 7.515625 -2.234375 C 7.367188 -1.734375 7.144531 -1.304688 6.84375 -0.953125 C 6.550781 -0.597656 6.1875 -0.320312 5.75 -0.125 C 5.3125 0.0625 4.804688 0.15625 4.234375 0.15625 Z M 4.234375 -0.796875 C 4.484375 -0.796875 4.75 -0.835938 5.03125 -0.921875 C 5.3125 -1.003906 5.570312 -1.15625 5.8125 -1.375 C 6.050781 -1.601562 6.242188 -1.921875 6.390625 -2.328125 C 6.546875 -2.734375 6.625 -3.253906 6.625 -3.890625 C 6.625 -4.648438 6.515625 -5.257812 6.296875 -5.71875 C 6.078125 -6.1875 5.785156 -6.53125 5.421875 -6.75 C 5.066406 -6.96875 4.675781 -7.078125 4.25 -7.078125 C 4.019531 -7.078125 3.765625 -7.035156 3.484375 -6.953125 C 3.203125 -6.867188 2.9375 -6.710938 2.6875 -6.484375 C 2.445312 -6.265625 2.242188 -5.945312 2.078125 -5.53125 C 1.921875 -5.125 1.84375 -4.582031 1.84375 -3.90625 C 1.84375 -3.300781 1.910156 -2.796875 2.046875 -2.390625 C 2.191406 -1.984375 2.378906 -1.660156 2.609375 -1.421875 C 2.847656 -1.191406 3.109375 -1.03125 3.390625 -0.9375 C 3.671875 -0.84375 3.953125 -0.796875 4.234375 -0.796875 Z M 4.234375 -0.796875 "/></g></g></g><g fill="#000000" fill-opacity="1"><g transform="translate(126.720537, 11.134385)"><g><path d="M 1 0 L 1 -7.90625 L 2.09375 -7.90625 L 2.09375 0 Z M 1.4375 -3.375 L 1.4375 -4.328125 L 5.9375 -4.328125 L 5.9375 -3.375 Z M 1.4375 -6.9375 L 1.4375 -7.90625 L 6.46875 -7.90625 L 6.46875 -6.9375 Z M 1.4375 -6.9375 "/></g></g></g><g fill="#000000" fill-opacity="1"><g transform="translate(138.269752, 11.134385)"><g><path d="M 2.6875 0 L 2.6875 -7.90625 L 3.78125 -7.90625 L 3.78125 0 Z M 0.28125 -6.9375 L 0.28125 -7.90625 L 6.171875 -7.90625 L 6.171875 -6.9375 Z M 0.28125 -6.9375 "/></g></g></g><g fill="#000000" fill-opacity="1"><g transform="translate(149.519757, 11.134385)"><g><path d="M 2.375 0 L 0.390625 -7.90625 L 1.5625 -7.90625 L 3.15625 -1 L 3.25 -1 L 4.890625 -7.90625 L 6.375 -7.90625 L 7.96875 -1 L 8.0625 -1 L 9.6875 -7.90625 L 10.828125 -7.90625 L 8.8125 0 L 7.234375 0 L 5.65625 -6.875 L 5.5625 -6.875 L 3.96875 0 Z M 2.375 0 "/></g></g></g><g fill="#000000" fill-opacity="1"><g transform="translate(165.533069, 11.134385)"><g><path d="M 0.328125 0 L 3.109375 -7.90625 L 4.703125 -7.90625 L 7.484375 0 L 6.3125 0 L 3.984375 -6.984375 L 3.84375 -6.984375 L 1.515625 0 Z M 1.65625 -1.765625 L 1.65625 -2.609375 L 6.3125 -2.609375 L 6.3125 -1.765625 Z M 1.65625 -1.765625 "/></g></g></g><g fill="#000000" fill-opacity="1"><g transform="translate(178.135478, 11.134385)"><g><path d="M 1 0 L 1 -7.90625 L 3.75 -7.90625 C 4.132812 -7.90625 4.488281 -7.867188 4.8125 -7.796875 C 5.132812 -7.734375 5.425781 -7.640625 5.6875 -7.515625 C 5.945312 -7.398438 6.164062 -7.25 6.34375 -7.0625 C 6.53125 -6.875 6.671875 -6.660156 6.765625 -6.421875 C 6.867188 -6.179688 6.921875 -5.90625 6.921875 -5.59375 C 6.921875 -5.320312 6.878906 -5.066406 6.796875 -4.828125 C 6.710938 -4.597656 6.585938 -4.394531 6.421875 -4.21875 C 6.253906 -4.050781 6.046875 -3.910156 5.796875 -3.796875 C 5.546875 -3.679688 5.253906 -3.601562 4.921875 -3.5625 L 4.921875 -3.421875 C 5.203125 -3.378906 5.445312 -3.300781 5.65625 -3.1875 C 5.875 -3.082031 6.0625 -2.914062 6.21875 -2.6875 C 6.382812 -2.46875 6.523438 -2.164062 6.640625 -1.78125 L 7.140625 0 L 5.953125 0 L 5.546875 -1.59375 C 5.472656 -1.9375 5.34375 -2.207031 5.15625 -2.40625 C 4.976562 -2.613281 4.769531 -2.765625 4.53125 -2.859375 C 4.289062 -2.953125 4.019531 -3 3.71875 -3 L 2.09375 -3 L 2.09375 0 Z M 2.09375 -3.890625 L 3.40625 -3.890625 C 3.570312 -3.890625 3.753906 -3.894531 3.953125 -3.90625 C 4.160156 -3.914062 4.375 -3.941406 4.59375 -3.984375 C 4.8125 -4.035156 5.007812 -4.113281 5.1875 -4.21875 C 5.363281 -4.332031 5.507812 -4.488281 5.625 -4.6875 C 5.738281 -4.882812 5.796875 -5.132812 5.796875 -5.4375 C 5.796875 -5.75 5.738281 -6 5.625 -6.1875 C 5.507812 -6.382812 5.363281 -6.535156 5.1875 -6.640625 C 5.019531 -6.753906 4.832031 -6.832031 4.625 -6.875 C 4.425781 -6.925781 4.238281 -6.957031 4.0625 -6.96875 C 3.882812 -6.976562 3.734375 -6.984375 3.609375 -6.984375 L 2.09375 -6.984375 Z M 2.09375 -3.890625 "/></g></g></g><g fill="#000000" fill-opacity="1"><g transform="translate(190.642139, 11.134385)"><g><path d="M 1 0 L 1 -7.90625 L 2.09375 -7.90625 L 2.09375 0 Z M 1.5625 0 L 1.5625 -0.953125 L 6.515625 -0.953125 L 6.515625 0 Z M 1.5625 -3.59375 L 1.5625 -4.46875 L 5.953125 -4.46875 L 5.953125 -3.59375 Z M 1.5625 -6.953125 L 1.5625 -7.90625 L 6.515625 -7.90625 L 6.515625 -6.953125 Z M 1.5625 -6.953125 "/></g></g></g><g fill="#000000" fill-opacity="1"><g transform="translate(202.406786, 11.134385)"><g/></g></g><g fill="#000000" fill-opacity="1"><g transform="translate(210.186059, 11.134385)"><g><path d="M 1 0 L 1 -7.90625 L 2.09375 -7.90625 L 2.09375 0 Z M 1.5625 0 L 1.5625 -0.953125 L 6.515625 -0.953125 L 6.515625 0 Z M 1.5625 -3.59375 L 1.5625 -4.46875 L 5.953125 -4.46875 L 5.953125 -3.59375 Z M 1.5625 -6.953125 L 1.5625 -7.90625 L 6.515625 -7.90625 L 6.515625 -6.953125 Z M 1.5625 -6.953125 "/></g></g></g><g fill="#000000" fill-opacity="1"><g transform="translate(221.950706, 11.134385)"><g><path d="M 1 0 L 1 -7.90625 L 2.46875 -7.90625 L 6.609375 -1.4375 L 6.6875 -1.4375 L 6.625 -7.90625 L 7.703125 -7.90625 L 7.703125 0 L 6.34375 0 L 2.09375 -6.609375 L 2 -6.609375 L 2.078125 0 Z M 1 0 "/></g></g></g><g fill="#000000" fill-opacity="1"><g transform="translate(235.426785, 11.134385)"><g><path d="M 4.0625 0.15625 C 3.414062 0.15625 2.835938 0.0078125 2.328125 -0.28125 C 1.828125 -0.582031 1.429688 -1.035156 1.140625 -1.640625 C 0.859375 -2.242188 0.71875 -3 0.71875 -3.90625 C 0.71875 -4.550781 0.796875 -5.128906 0.953125 -5.640625 C 1.117188 -6.148438 1.351562 -6.582031 1.65625 -6.9375 C 1.96875 -7.300781 2.34375 -7.578125 2.78125 -7.765625 C 3.226562 -7.960938 3.75 -8.0625 4.34375 -8.0625 C 4.769531 -8.0625 5.160156 -8.003906 5.515625 -7.890625 C 5.878906 -7.773438 6.191406 -7.613281 6.453125 -7.40625 C 6.722656 -7.195312 6.9375 -6.9375 7.09375 -6.625 C 7.257812 -6.320312 7.359375 -5.976562 7.390625 -5.59375 L 6.328125 -5.296875 C 6.304688 -5.628906 6.234375 -5.910156 6.109375 -6.140625 C 5.992188 -6.367188 5.835938 -6.550781 5.640625 -6.6875 C 5.453125 -6.832031 5.242188 -6.9375 5.015625 -7 C 4.796875 -7.0625 4.5625 -7.09375 4.3125 -7.09375 C 3.976562 -7.09375 3.660156 -7.035156 3.359375 -6.921875 C 3.054688 -6.804688 2.796875 -6.625 2.578125 -6.375 C 2.359375 -6.132812 2.179688 -5.8125 2.046875 -5.40625 C 1.921875 -5 1.859375 -4.507812 1.859375 -3.9375 C 1.859375 -3.34375 1.925781 -2.84375 2.0625 -2.4375 C 2.195312 -2.03125 2.375 -1.707031 2.59375 -1.46875 C 2.820312 -1.238281 3.082031 -1.070312 3.375 -0.96875 C 3.664062 -0.863281 3.960938 -0.8125 4.265625 -0.8125 C 4.679688 -0.8125 5.039062 -0.890625 5.34375 -1.046875 C 5.65625 -1.210938 5.90625 -1.457031 6.09375 -1.78125 C 6.28125 -2.101562 6.390625 -2.507812 6.421875 -3 L 4.65625 -3 L 4.65625 -3.875 L 7.515625 -3.875 L 7.515625 0 L 6.625 0 L 6.84375 -2.171875 L 6.671875 -2.171875 C 6.566406 -1.648438 6.40625 -1.21875 6.1875 -0.875 C 5.96875 -0.53125 5.679688 -0.269531 5.328125 -0.09375 C 4.984375 0.0703125 4.5625 0.15625 4.0625 0.15625 Z M 4.0625 0.15625 "/></g></g></g><g fill="#000000" fill-opacity="1"><g transform="translate(248.507929, 11.134385)"><g><path d="M 1 0 L 1 -7.90625 L 2.109375 -7.90625 L 2.109375 0 Z M 1 0 "/></g></g></g><g fill="#000000" fill-opacity="1"><g transform="translate(256.394901, 11.134385)"><g><path d="M 1 0 L 1 -7.90625 L 2.46875 -7.90625 L 6.609375 -1.4375 L 6.6875 -1.4375 L 6.625 -7.90625 L 7.703125 -7.90625 L 7.703125 0 L 6.34375 0 L 2.09375 -6.609375 L 2 -6.609375 L 2.078125 0 Z M 1 0 "/></g></g></g><g fill="#000000" fill-opacity="1"><g transform="translate(269.870981, 11.134385)"><g><path d="M 1 0 L 1 -7.90625 L 2.09375 -7.90625 L 2.09375 0 Z M 1.5625 0 L 1.5625 -0.953125 L 6.515625 -0.953125 L 6.515625 0 Z M 1.5625 -3.59375 L 1.5625 -4.46875 L 5.953125 -4.46875 L 5.953125 -3.59375 Z M 1.5625 -6.953125 L 1.5625 -7.90625 L 6.515625 -7.90625 L 6.515625 -6.953125 Z M 1.5625 -6.953125 "/></g></g></g><g fill="#000000" fill-opacity="1"><g transform="translate(281.635628, 11.134385)"><g><path d="M 1 0 L 1 -7.90625 L 2.09375 -7.90625 L 2.09375 0 Z M 1.5625 0 L 1.5625 -0.953125 L 6.515625 -0.953125 L 6.515625 0 Z M 1.5625 -3.59375 L 1.5625 -4.46875 L 5.953125 -4.46875 L 5.953125 -3.59375 Z M 1.5625 -6.953125 L 1.5625 -7.90625 L 6.515625 -7.90625 L 6.515625 -6.953125 Z M 1.5625 -6.953125 "/></g></g></g><g fill="#000000" fill-opacity="1"><g transform="translate(293.400275, 11.134385)"><g><path d="M 1 0 L 1 -7.90625 L 3.75 -7.90625 C 4.132812 -7.90625 4.488281 -7.867188 4.8125 -7.796875 C 5.132812 -7.734375 5.425781 -7.640625 5.6875 -7.515625 C 5.945312 -7.398438 6.164062 -7.25 6.34375 -7.0625 C 6.53125 -6.875 6.671875 -6.660156 6.765625 -6.421875 C 6.867188 -6.179688 6.921875 -5.90625 6.921875 -5.59375 C 6.921875 -5.320312 6.878906 -5.066406 6.796875 -4.828125 C 6.710938 -4.597656 6.585938 -4.394531 6.421875 -4.21875 C 6.253906 -4.050781 6.046875 -3.910156 5.796875 -3.796875 C 5.546875 -3.679688 5.253906 -3.601562 4.921875 -3.5625 L 4.921875 -3.421875 C 5.203125 -3.378906 5.445312 -3.300781 5.65625 -3.1875 C 5.875 -3.082031 6.0625 -2.914062 6.21875 -2.6875 C 6.382812 -2.46875 6.523438 -2.164062 6.640625 -1.78125 L 7.140625 0 L 5.953125 0 L 5.546875 -1.59375 C 5.472656 -1.9375 5.34375 -2.207031 5.15625 -2.40625 C 4.976562 -2.613281 4.769531 -2.765625 4.53125 -2.859375 C 4.289062 -2.953125 4.019531 -3 3.71875 -3 L 2.09375 -3 L 2.09375 0 Z M 2.09375 -3.890625 L 3.40625 -3.890625 C 3.570312 -3.890625 3.753906 -3.894531 3.953125 -3.90625 C 4.160156 -3.914062 4.375 -3.941406 4.59375 -3.984375 C 4.8125 -4.035156 5.007812 -4.113281 5.1875 -4.21875 C 5.363281 -4.332031 5.507812 -4.488281 5.625 -4.6875 C 5.738281 -4.882812 5.796875 -5.132812 5.796875 -5.4375 C 5.796875 -5.75 5.738281 -6 5.625 -6.1875 C 5.507812 -6.382812 5.363281 -6.535156 5.1875 -6.640625 C 5.019531 -6.753906 4.832031 -6.832031 4.625 -6.875 C 4.425781 -6.925781 4.238281 -6.957031 4.0625 -6.96875 C 3.882812 -6.976562 3.734375 -6.984375 3.609375 -6.984375 L 2.09375 -6.984375 Z M 2.09375 -3.890625 "/></g></g></g></g></g></g></svg>